<?xml version="1.0" encoding="UTF-8"?>
<svg id="Calque_1" xmlns="http://www.w3.org/2000/svg" width="33" height="36" viewBox="0 0 33 36">
  <path d="M14.821,34.548c-.085-.903-.588-1.841-.156-2.711.294-.446.22-1.527.928-1.427.801.03,1.738.453,2.448-.066.827-.517-.21-1.39.431-2.014.078-.082-.006-.316-.019-.552.274-.171.213-.47.078-.789-.191-.607,1.361-.245.674-1.259-.285-.71-1.419-1.474-1.044-2.26.492-1.02-.224-2.158-.34-3.215.747-.442,1.032-1.116,1.043-1.987-.146.091-.257.16-.384.239-.14-.273-.276-.538-.439-.855-.082.166-.143.288-.209.42-.089-.324-.174-.634-.28-1.019-.816,1.194-4.809-1.138-7.247.311-.058-.084-.109-.157-.149-.214-.863.543-1.754,1.19-2.499,1.84.038-.064.113-.19.188-.317-.017-.011-.034-.023-.051-.034-.315.42-.629.84-.944,1.26.014.015.029.029.043.044.125-.135.25-.269.379-.408-2.149,5.504,3.51,6.933.868,10.801-.026-.012-.052-.024-.077-.036.9-1.431.138-2.574-.748-3.755-.842-1.308-1.683-2.592-2.518-3.909-.106.329-.195.608-.3.932-.866-1.11-1.358-2.432-.768-3.808-.617.311-.981.749-1.282,1.279-1.131-.973-.529-2.588-.067-3.769-.596.139-.857.574-1.161,1.047-.806-2.476,2.286-3.432,4.123-3.867-1.439-.052-2.871.36-3.978,1.318.315-4.348,3.235-3.496,5.939-5.031-5.169,1.202-5.424-6.997-1.761-5.824-2.724.647-.505,3.856,1.428,2.415,3.201-2.447,3.645-3.652,7.986-3.276-.691-.509-1.5-.602-2.387-.693,1.974-1.42,4.39-1.488,6.63-.826-.687-.546-1.531-.716-2.31-1.041,2.788-.277,5.223.504,7.302,2.504.153-1.559,1.624-2.314,3.032-2.384-1.804,4.812-1.916,2.299-.04,5.978.542.802,1.739,1.321,1.297,2.495-.13.435-.082.853.134,1.244.748,1.356,1.504,2.709,2.26,4.061,1.034.655,1.488,2.044.444,2.935-1.714,3.291-1.741.287-3.667.528.291.435.87.722.933,1.229-1.085-.318-2.618-.54-2.97-1.784-.434-1.034-1.481-1.691-2.212-2.517-3.103-1.112-4.463-1.665-4.792-5.322-.902,3.555,4.231,6.296,3.871,10.94-.224-.426-.428-.816-.633-1.206-.021.004-.041.009-.062.013.542,3.497.66,7.889-2.511,10.193-1.537,1.31-3.428,2.283-4.357,4.172-.032-.006-.064-.012-.096-.019Z" style="fill: #c6cad6;"/>
</svg>